<svg width="123" height="19" viewBox="0 0 123 19" fill="none" xmlns="http://www.w3.org/2000/svg">
<g clip-path="url(#clip0_155_3831)">
<path fill-rule="evenodd" clip-rule="evenodd" d="M18.8316 12.1631C16.9798 12.0922 15.4385 13.3704 14.1281 14.6807C11.5272 17.2816 7.31031 17.2816 4.70935 14.6807L0 9.97136L9.18326 0.788086C9.35524 0.960068 9.529 1.13499 9.70453 1.31168C12.545 4.17142 15.8474 7.49605 19.6191 6.36889C20.4674 6.11536 21.1617 5.69595 21.6713 5.25379L22.134 4.79105L22.605 4.32011C25.2059 1.7192 29.4228 1.7192 32.0237 4.32011L36.7331 9.02949L27.5498 18.2128L24.8211 15.4841C23.5281 14.1911 22.143 12.888 20.379 12.4062C19.8363 12.2579 19.3194 12.1817 18.8316 12.1631Z" fill="url(#paint0_linear_155_3831)"/>
<g clip-path="url(#clip1_155_3831)">
<path d="M122.326 4.61328V6.31426H118.866C117.262 6.31426 115.952 7.62422 115.952 9.22744V14.8192H114.251V9.22744C114.251 6.68574 116.324 4.61328 118.866 4.61328H122.326Z" fill="#E6E6E6"/>
<path d="M112.858 8.91462V14.8387H111.157V11.8278H106.601C104.861 11.8278 103.434 13.1377 103.238 14.8387H101.459C101.674 12.1602 103.903 10.0682 106.601 10.0682H111.372L111.117 8.50403C110.922 7.27229 109.886 6.37292 108.634 6.37292H101.459V4.61328H108.634C110.961 4.61328 112.858 6.54888 112.858 8.91462Z" fill="#E6E6E6"/>
<path d="M100.099 9.9313V14.8192H98.3979V9.9313C98.3979 7.93704 96.7752 6.31426 94.7613 6.31426H89.7366V14.8192H88.0552V4.61328H94.7613C97.6941 4.61328 100.099 6.99857 100.099 9.9313Z" fill="#E6E6E6"/>
<path d="M84.9624 14.8387V4.65234H86.6634V14.8387H84.9624Z" fill="#E6E6E6"/>
<path d="M78.265 4.61328C81.1977 4.61328 83.583 6.99857 83.583 9.9313V14.8387H81.9015V9.9313C81.9015 7.93704 80.2592 6.31426 78.265 6.31426H76.4662V14.8387H74.7652V11.0653C74.7652 8.44538 72.6341 6.31426 70.0142 6.31426H68.3523V14.8192H66.6709V4.61328H70.0142C70.4443 4.61328 70.9722 4.65238 71.5392 4.78924C73.162 5.18028 74.2373 6.0992 74.7652 6.64664V4.61328H78.265Z" fill="#E6E6E6"/>
<path d="M65.277 8.91462V14.8387H63.576V11.8278H59.0205C57.2804 11.8278 55.8531 13.1377 55.6576 14.8387H53.8784C54.0935 12.1602 56.3224 10.0682 59.0205 10.0682H63.791L63.5369 8.50403C63.3414 7.27229 62.3051 6.37292 61.0538 6.37292H53.8784V4.61328H61.0538C63.3805 4.61328 65.277 6.54888 65.277 8.91462Z" fill="#E6E6E6"/>
<path d="M52.9978 13.4113V14.8386H43.3198V1.93457H45.0208V13.4113H52.9978Z" fill="#E6E6E6"/>
</g>
</g>
<defs>
<linearGradient id="paint0_linear_155_3831" x1="25.6952" y1="12.9133" x2="13.0582" y2="5.33115" gradientUnits="userSpaceOnUse">
<stop offset="0.045694" stop-color="#F3F3F3"/>
<stop offset="0.426466" stop-color="#A2A2A2"/>
<stop offset="0.746963" stop-color="#A2A2A2"/>
<stop offset="1" stop-color="#F3F3F3"/>
</linearGradient>
<clipPath id="clip0_155_3831">
<rect width="123" height="17.4247" fill="white" transform="translate(0 0.788086)"/>
</clipPath>
<clipPath id="clip1_155_3831">
<rect width="80.3644" height="10.2836" fill="white" transform="translate(42.6357 4.3584)"/>
</clipPath>
</defs>
</svg>
