<svg width="787" height="119" viewBox="0 0 787 119" fill="none" xmlns="http://www.w3.org/2000/svg">
<g clip-path="url(#clip0_301_3905)">
<rect width="787" height="118.59" fill="#F2F2F2"/>
<path fill-rule="evenodd" clip-rule="evenodd" d="M128.165 77.4165C115.562 76.9344 105.072 85.6331 96.1538 94.5512C78.4525 112.253 49.7529 112.253 32.0511 94.5512L0 62.5L62.4999 0C63.6704 1.17048 64.8529 2.36096 66.0476 3.5635C85.3796 23.0265 107.855 45.6534 133.524 37.9821C139.298 36.2567 144.023 33.4022 147.492 30.3929L150.641 27.2436L153.846 24.0385C171.548 6.33703 200.247 6.33703 217.948 24.0385L250 56.0898L187.5 118.59L168.929 100.019C160.129 91.2189 150.702 82.3503 138.697 79.071C135.003 78.062 131.485 77.5435 128.165 77.4165Z" fill="#262727"/>
<g clip-path="url(#clip1_301_3905)">
<path d="M351.159 82.7684V91.6452H290.967V11.3886H301.546V82.7684H351.159ZM427.529 54.8001V91.6452H416.95V72.9187H388.617C377.794 72.9187 368.918 81.0659 367.702 91.6452H356.636C357.973 74.9859 371.836 61.9746 388.617 61.9746H418.288L416.707 52.2465C415.491 44.5856 409.046 38.992 401.263 38.992H356.636V28.0479H401.263C415.734 28.0479 427.529 40.0864 427.529 54.8001ZM508.308 28.0479C526.549 28.0479 541.384 42.8832 541.384 61.1234V91.6452H530.926V61.1234C530.926 48.7201 520.712 38.6272 508.308 38.6272H497.121V91.6452H486.542V68.1762C486.542 51.8817 473.287 38.6272 456.993 38.6272H446.657V91.5236H436.199V28.0479H456.993C459.668 28.0479 462.951 28.2911 466.478 29.1423C476.571 31.5743 483.259 37.2896 486.542 40.6944V28.0479H508.308ZM549.962 91.6452V28.2911H560.542V91.6452H549.962ZM644.106 61.1234V91.5236H633.527V61.1234C633.527 48.7201 623.434 38.6272 610.909 38.6272H579.658V91.5236H569.2V28.0479H610.909C629.149 28.0479 644.106 42.8832 644.106 61.1234ZM723.457 54.8001V91.6452H712.877V72.9187H684.544C673.722 72.9187 664.845 81.0659 663.629 91.6452H652.563C653.901 74.9859 667.763 61.9746 684.544 61.9746H714.215L712.634 52.2465C711.418 44.5856 704.973 38.992 697.191 38.992H652.563V28.0479H697.191C711.661 28.0479 723.457 40.0864 723.457 54.8001ZM782.348 28.0479V38.6272H760.824C750.853 38.6272 742.706 46.7745 742.706 56.7457V91.5236H732.126V56.7457C732.126 40.9376 745.016 28.0479 760.824 28.0479H782.348Z" fill="#262727"/>
</g>
</g>
<defs>
<clipPath id="clip0_301_3905">
<rect width="787" height="118.59" fill="white"/>
</clipPath>
<clipPath id="clip1_301_3905">
<rect width="499.828" height="63.959" fill="white" transform="translate(286.711 27.3154)"/>
</clipPath>
</defs>
</svg>
