<svg width="501" height="64" viewBox="0 0 501 64" fill="none" xmlns="http://www.w3.org/2000/svg">
<g clip-path="url(#clip0_301_23)">
<g clip-path="url(#clip1_301_23)">
<path d="M64.4798 55.4411V64.3222H4.25852V-15.9729H14.8429V55.4411H64.4798ZM140.887 27.4595V64.3222H130.302V45.5867H101.956C91.128 45.5867 82.2468 53.7379 81.0302 64.3222H69.9593C71.2975 47.6549 85.1667 34.6374 101.956 34.6374H131.64L130.059 24.9046C128.842 17.2401 122.394 11.6438 114.608 11.6438H69.9593V0.694452H114.608C129.086 0.694452 140.887 12.7387 140.887 27.4595ZM221.704 0.694452C239.953 0.694452 254.796 15.5369 254.796 33.7858V64.3222H244.333V33.7858C244.333 21.3765 234.114 11.2788 221.704 11.2788H210.512V64.3222H199.927V40.842C199.927 24.5397 186.667 11.2788 170.364 11.2788H160.023V64.2006H149.56V0.694452H170.364C173.041 0.694452 176.326 0.937767 179.854 1.78939C189.951 4.22257 196.643 9.94055 199.927 13.347V0.694452H221.704ZM263.378 64.3222V0.937767H273.963V64.3222H263.378ZM357.567 33.7858V64.2006H346.983V33.7858C346.983 21.3765 336.885 11.2788 324.354 11.2788H293.088V64.2006H282.625V0.694452H324.354C342.603 0.694452 357.567 15.5369 357.567 33.7858ZM436.956 27.4595V64.3222H426.371V45.5867H398.025C387.197 45.5867 378.316 53.7379 377.099 64.3222H366.028C367.367 47.6549 381.236 34.6374 398.025 34.6374H427.71L426.128 24.9046C424.911 17.2401 418.463 11.6438 410.677 11.6438H366.028V0.694452H410.677C425.155 0.694452 436.956 12.7387 436.956 27.4595ZM495.875 0.694452V11.2788H474.341C464.365 11.2788 456.214 19.43 456.214 29.406V64.2006H445.63V29.406C445.63 13.5903 458.525 0.694452 474.341 0.694452H495.875Z" fill="white"/>
</g>
</g>
<defs>
<clipPath id="clip0_301_23">
<rect width="500.067" height="63.9896" fill="white"/>
</clipPath>
<clipPath id="clip1_301_23">
<rect width="500.067" height="63.9896" fill="white"/>
</clipPath>
</defs>
</svg>
