<svg width="688" height="687" viewBox="0 0 688 687" fill="none" xmlns="http://www.w3.org/2000/svg">
<path fill-rule="evenodd" clip-rule="evenodd" d="M352.018 388.399C320.208 387.182 293.731 409.138 271.222 431.647C226.544 476.326 154.106 476.326 109.427 431.647L28.5298 350.75L186.28 193C189.234 195.954 192.219 198.959 195.234 201.994C244.028 251.119 300.755 308.229 365.545 288.867C380.118 284.512 392.044 277.307 400.799 269.712L408.748 261.763L416.838 253.673C461.516 208.995 533.954 208.995 578.632 253.673L659.53 334.571L501.779 492.32L454.906 445.448C432.695 423.236 408.902 400.852 378.6 392.575C369.277 390.028 360.397 388.72 352.018 388.399Z" fill="url(#paint0_linear_301_4173)"/>
<defs>
<linearGradient id="paint0_linear_301_4173" x1="441.204" y1="445.4" x2="252.843" y2="271.041" gradientUnits="userSpaceOnUse">
<stop offset="0.045694" stop-color="#F3F3F3"/>
<stop offset="0.426466" stop-color="#BBFFEF"/>
<stop offset="0.746963" stop-color="#51E0C6"/>
<stop offset="1" stop-color="#F3F3F3"/>
</linearGradient>
</defs>
</svg>
