<svg width="688" height="687" viewBox="0 0 688 687" fill="none" xmlns="http://www.w3.org/2000/svg">
<path fill-rule="evenodd" clip-rule="evenodd" d="M351.692 389.186C319.428 387.952 292.573 410.221 269.743 433.051C224.428 478.367 150.957 478.367 105.64 433.051L23.5894 351L183.589 191C186.586 193.996 189.613 197.044 192.671 200.123C242.161 249.948 299.698 307.873 365.412 288.234C380.192 283.817 392.289 276.51 401.168 268.806L409.23 260.744L417.436 252.538C462.751 207.223 536.222 207.223 581.537 252.538L663.589 334.59L503.589 494.59L456.047 447.048C433.52 424.52 409.387 401.817 378.653 393.422C369.196 390.839 360.19 389.511 351.692 389.186Z" fill="#262727"/>
</svg>
