<svg width="687" height="687" viewBox="0 0 687 687" fill="none" xmlns="http://www.w3.org/2000/svg">
<path fill-rule="evenodd" clip-rule="evenodd" d="M351.221 389.186C318.958 387.952 292.103 410.221 269.273 433.051C223.958 478.367 150.486 478.367 105.17 433.051L23.1191 351L183.119 191C186.115 193.996 189.143 197.044 192.201 200.123C241.691 249.948 299.228 307.873 364.942 288.234C379.722 283.817 391.819 276.51 400.698 268.806L408.76 260.744L416.965 252.538C462.281 207.223 535.752 207.223 581.067 252.538L663.119 334.59L503.118 494.59L455.577 447.048C433.049 424.52 408.917 401.817 378.183 393.422C368.726 390.839 359.72 389.511 351.221 389.186Z" fill="#FBFBFB"/>
</svg>
