<svg width="501" height="65" viewBox="0 0 501 65" fill="none" xmlns="http://www.w3.org/2000/svg">
<g clip-path="url(#clip0_301_34)">
<g clip-path="url(#clip1_301_34)">
<path d="M64.4798 56.4203V65.3015H4.25852V-14.9936H14.8429V56.4203H64.4798ZM140.887 28.4387V65.3015H130.302V46.5659H101.956C91.128 46.5659 82.2468 54.7171 81.0302 65.3015H69.9593C71.2975 48.6342 85.1667 35.6166 101.956 35.6166H131.64L130.059 25.8839C128.842 18.2194 122.394 12.623 114.608 12.623H69.9593V1.6737H114.608C129.086 1.6737 140.887 13.718 140.887 28.4387ZM221.704 1.6737C239.953 1.6737 254.796 16.5161 254.796 34.765V65.3015H244.333V34.765C244.333 22.3558 234.114 12.258 221.704 12.258H210.512V65.3015H199.927V41.8212C199.927 25.5189 186.667 12.258 170.364 12.258H160.023V65.1798H149.56V1.6737H170.364C173.041 1.6737 176.326 1.91702 179.854 2.76863C189.951 5.20182 196.643 10.9198 199.927 14.3263V1.6737H221.704ZM263.378 65.3015V1.91702H273.963V65.3015H263.378ZM357.567 34.765V65.1798H346.983V34.765C346.983 22.3558 336.885 12.258 324.354 12.258H293.088V65.1798H282.625V1.6737H324.354C342.603 1.6737 357.567 16.5161 357.567 34.765ZM436.956 28.4387V65.3015H426.371V46.5659H398.025C387.197 46.5659 378.316 54.7171 377.099 65.3015H366.028C367.367 48.6342 381.236 35.6166 398.025 35.6166H427.71L426.128 25.8839C424.911 18.2194 418.463 12.623 410.677 12.623H366.028V1.6737H410.677C425.155 1.6737 436.956 13.718 436.956 28.4387ZM495.875 1.6737V12.258H474.341C464.365 12.258 456.214 20.4092 456.214 30.3853V65.1798H445.63V30.3853C445.63 14.5696 458.525 1.6737 474.341 1.6737H495.875Z" fill="#202020"/>
</g>
</g>
<defs>
<clipPath id="clip0_301_34">
<rect width="500.067" height="63.9896" fill="white" transform="translate(0 0.979248)"/>
</clipPath>
<clipPath id="clip1_301_34">
<rect width="500.067" height="63.9896" fill="white" transform="translate(0 0.979248)"/>
</clipPath>
</defs>
</svg>
