<svg width="687" height="687" viewBox="0 0 687 687" fill="none" xmlns="http://www.w3.org/2000/svg">
<path fill-rule="evenodd" clip-rule="evenodd" d="M351.902 391.07C318.681 389.799 291.029 412.729 267.521 436.237C220.86 482.898 145.208 482.898 98.5464 436.237L14.0596 351.75L178.809 187C181.895 190.085 185.012 193.223 188.161 196.393C239.12 247.698 298.365 307.342 366.03 287.121C381.249 282.573 393.705 275.048 402.848 267.116L411.149 258.814L419.598 250.365C466.259 203.704 541.911 203.704 588.572 250.365L673.06 334.853L508.309 499.602L459.356 450.65C436.16 427.453 411.31 404.075 379.664 395.431C369.927 392.771 360.654 391.405 351.902 391.07Z" fill="url(#paint0_linear_301_4177)"/>
<defs>
<linearGradient id="paint0_linear_301_4177" x1="475.037" y1="404.53" x2="248.327" y2="268.504" gradientUnits="userSpaceOnUse">
<stop offset="0.045694" stop-color="#F3F3F3"/>
<stop offset="0.426466" stop-color="#A2A2A2"/>
<stop offset="0.746963" stop-color="#A2A2A2"/>
<stop offset="1" stop-color="#F3F3F3"/>
</linearGradient>
</defs>
</svg>
