<svg width="501" height="65" viewBox="0 0 501 65" fill="none" xmlns="http://www.w3.org/2000/svg">
<g clip-path="url(#clip0_301_29)">
<g clip-path="url(#clip1_301_29)">
<path d="M64.4798 56.4307V65.3118H4.25852V-14.9832H14.8429V56.4307H64.4798ZM140.887 28.4491V65.3118H130.302V46.5763H101.956C91.128 46.5763 82.2468 54.7275 81.0302 65.3118H69.9593C71.2975 48.6445 85.1667 35.627 101.956 35.627H131.64L130.059 25.8943C128.842 18.2297 122.394 12.6334 114.608 12.6334H69.9593V1.68408H114.608C129.086 1.68408 140.887 13.7283 140.887 28.4491ZM221.704 1.68408C239.953 1.68408 254.796 16.5265 254.796 34.7754V65.3118H244.333V34.7754C244.333 22.3661 234.114 12.2684 221.704 12.2684H210.512V65.3118H199.927V41.8316C199.927 25.5293 186.667 12.2684 170.364 12.2684H160.023V65.1902H149.56V1.68408H170.364C173.041 1.68408 176.326 1.92739 179.854 2.77901C189.951 5.21219 196.643 10.9302 199.927 14.3366V1.68408H221.704ZM263.378 65.3118V1.92739H273.963V65.3118H263.378ZM357.567 34.7754V65.1902H346.983V34.7754C346.983 22.3661 336.885 12.2684 324.354 12.2684H293.088V65.1902H282.625V1.68408H324.354C342.603 1.68408 357.567 16.5265 357.567 34.7754ZM436.956 28.4491V65.3118H426.371V46.5763H398.025C387.197 46.5763 378.316 54.7275 377.099 65.3118H366.028C367.367 48.6445 381.236 35.627 398.025 35.627H427.71L426.128 25.8943C424.911 18.2297 418.463 12.6334 410.677 12.6334H366.028V1.68408H410.677C425.155 1.68408 436.956 13.7283 436.956 28.4491ZM495.875 1.68408V12.2684H474.341C464.365 12.2684 456.214 20.4196 456.214 30.3956V65.1902H445.63V30.3956C445.63 14.58 458.525 1.68408 474.341 1.68408H495.875Z" fill="#61FBD3"/>
</g>
</g>
<defs>
<clipPath id="clip0_301_29">
<rect width="500.067" height="63.9896" fill="white" transform="translate(0 0.989624)"/>
</clipPath>
<clipPath id="clip1_301_29">
<rect width="500.067" height="63.9896" fill="white" transform="translate(0 0.989624)"/>
</clipPath>
</defs>
</svg>
